<svg width="300" height="85" viewBox="0 0 300 85" fill="none" xmlns="http://www.w3.org/2000/svg">
<g filter="url(#filter0_d_1176_58)">
<path d="M257 55.4998C257 60.1942 253.194 63.9998 248.5 63.9998C243.806 63.9998 240 60.1942 240 55.4998C240 50.8053 243.806 46.9998 248.5 46.9998C253.194 46.9998 257 50.8053 257 55.4998Z" fill="white"/>
<path d="M8 31.4998C8 16.8642 19.8645 4.99976 34.5 4.99976H266.5C281.136 4.99976 293 16.8642 293 31.4998C293 46.1353 281.136 57.9998 266.5 57.9998H34.5C19.8645 57.9998 8 46.1353 8 31.4998Z" fill="white"/>
<path d="M273 73.4998C273 75.985 270.985 77.9998 268.5 77.9998C266.015 77.9998 264 75.985 264 73.4998C264 71.0145 266.015 68.9998 268.5 68.9998C270.985 68.9998 273 71.0145 273 73.4998Z" fill="white"/>
</g>
<defs>
<filter id="filter0_d_1176_58" x="0" y="-3.00024" width="305" height="93" filterUnits="userSpaceOnUse" color-interpolation-filters="sRGB">
<feFlood flood-opacity="0" result="BackgroundImageFix"/>
<feColorMatrix in="SourceAlpha" type="matrix" values="0 0 0 0 0 0 0 0 0 0 0 0 0 0 0 0 0 0 127 0" result="hardAlpha"/>
<feOffset dx="2" dy="2"/>
<feGaussianBlur stdDeviation="5"/>
<feColorMatrix type="matrix" values="0 0 0 0 0.0901961 0 0 0 0 0.227451 0 0 0 0 0.337255 0 0 0 0.15 0"/>
<feBlend mode="normal" in2="BackgroundImageFix" result="effect1_dropShadow_1176_58"/>
<feBlend mode="normal" in="SourceGraphic" in2="effect1_dropShadow_1176_58" result="shape"/>
</filter>
</defs>
</svg>
